<svg width="20" height="18" viewBox="0 0 20 18" fill="none" xmlns="http://www.w3.org/2000/svg">
<g id="Heart">
<path id="Subtract" fill-rule="evenodd" clip-rule="evenodd" d="M4.28472 0.286333C0.582052 1.41944 -0.738149 5.2488 0.391497 8.59911C2.20862 13.9716 10.0014 18 10.0014 18C10.0014 18 17.8521 13.9096 19.6102 8.59911C20.7388 5.2488 19.4102 1.41944 15.7075 0.286333C13.762 -0.306722 11.5332 0.0733134 10.0014 1.19842C8.38219 0.0413105 6.23239 -0.310722 4.28472 0.286333ZM13.7574 3.27341C13.3561 3.1707 12.9476 3.41274 12.8448 3.81402C12.7421 4.2153 12.9842 4.62386 13.3855 4.72656C14.768 5.08041 15.5877 6.00902 15.6825 6.93365C15.7247 7.3457 16.093 7.64547 16.5051 7.60321C16.9171 7.56095 17.2169 7.19266 17.1747 6.78061C16.9982 5.06044 15.5644 3.73589 13.7574 3.27341Z" fill="#FF6934"/>
</g>
</svg>
