<svg fill="none" height="18" viewBox="0 0 20 18" width="20" xmlns="http://www.w3.org/2000/svg"><path clip-rule="evenodd" d="m4.28472.286333c-3.702668 1.133107-5.022869 4.962467-3.893223 8.312777 1.817123 5.37249 9.609903 9.40089 9.609903 9.40089s7.8507-4.0904 9.6088-9.40089c1.1286-3.35031-.2-7.17967-3.9027-8.312777-1.9455-.593055-4.1743-.2130196-5.7061.912087-1.61921-1.1571095-3.76901-1.509142-5.71668-.912087zm9.47268 2.987077c-.4013-.10271-.8098.13933-.9126.54061-.1027.40128.1394.80984.5407.91254 1.3825.35385 2.2022 1.28246 2.297 2.20709.0422.41205.4105.71182.8226.66956.412-.04226.7118-.41055.6696-.8226-.1765-1.72017-1.6103-3.04472-3.4173-3.5072z" fill="#ff6934" fill-rule="evenodd"/></svg>