<svg width="20" height="20" viewBox="0 0 20 20" fill="none" xmlns="http://www.w3.org/2000/svg">
<path d="M14.8194 17.864C14.8194 18.0798 14.6507 18.2308 14.461 18.2308H2.08693C1.87607 18.2308 1.72858 18.0582 1.72858 17.864V6.62347H9.16992L13.913 1.7691H2.10803C0.948575 1.7691 0 2.73994 0 3.9266V17.8425C0 19.0291 0.948575 20 2.10803 20H14.4611C15.6205 20 16.5691 19.0291 16.5691 17.8425V8.00427L14.8194 9.79488L14.8194 17.864Z" fill="#3F4354"/>
<path d="M6.61924 13.2471C6.57704 13.5059 6.80893 13.7432 7.08301 13.7002L9.57041 13.3766C9.97097 13.3335 10.3293 13.1393 10.6034 12.8588L10.7298 12.7294L7.58895 9.49298L7.46249 9.62256C7.1884 9.90308 6.99872 10.2913 6.95653 10.6798L6.61924 13.2471Z" fill="#3F4354"/>
<path d="M19.731 2.09283L17.9603 0.302103C17.7706 0.107963 17.5175 6.10352e-05 17.2646 6.10352e-05C17.0117 6.10352e-05 16.7588 0.0862954 16.5901 0.302103L8.2002 8.88894L11.3412 12.1037L19.7311 3.51681C20.0895 3.12839 20.0895 2.4811 19.7311 2.09283H19.731Z" fill="#3F4354"/>
</svg>
