<svg fill="none" height="24" viewBox="0 0 102 24" width="102" xmlns="http://www.w3.org/2000/svg"><path d="m.00200018 19v-16.952h3.82199982v6.526h5.85v-6.526h3.848v16.952h-3.848v-7.072h-5.85v7.072zm17.20749982 0v-12.896h3.822v12.896zm1.898-14.794c-.6413 0-1.1613-.182-1.56-.546-.3986-.364-.598-.84933-.598-1.456s.1994-1.092.598-1.456001c.3987-.364.9187-.546 1.56-.546.6414 0 1.1614.182 1.56.546.3987.364001.598.849331.598 1.456001s-.1993 1.092-.598 1.456c-.3986.364-.9186.546-1.56.546zm5.2876 19.578v-17.68h3.12l.26 1.274h.104c.5026-.45067 1.066-.82333 1.69-1.118.6413-.312 1.3-.468 1.976-.468 1.56 0 2.7906.598 3.692 1.794.9013 1.17867 1.352 2.7647 1.352 4.758 0 1.4733-.26 2.73-.78 3.77s-1.196 1.8373-2.028 2.392c-.8147.5373-1.69.806-2.626.806-.5547 0-1.092-.1127-1.612-.338-.52-.2427-1.0054-.5807-1.456-1.014l.13 2.054v3.77zm5.876-7.592c.6586 0 1.222-.3033 1.69-.91s.702-1.5687.702-2.886c0-2.3227-.7454-3.484-2.236-3.484-.7454 0-1.482.39-2.21 1.17v5.278c.3466.312.6933.5287 1.04.65.3466.1213.6846.182 1.014.182zm9.0283 2.808v-12.896h3.12l.26 1.638h.104c.5546-.52 1.1613-.97067 1.82-1.352.676-.39867 1.4473-.598 2.314-.598 1.404 0 2.418.468 3.042 1.404.6413.91867.962 2.184.962 3.796v8.008h-3.822v-7.514c0-.936-.13-1.57733-.39-1.924-.2427-.34667-.6414-.52-1.196-.52-.4854 0-.9014.11267-1.248.338-.3467.208-.728.51133-1.144.91v8.71zm20.4169.312c-1.092 0-2.1234-.26-3.094-.78-.9534-.5373-1.7247-1.3087-2.314-2.314-.5894-1.0227-.884-2.2447-.884-3.666 0-1.4387.2946-2.66067.884-3.666.5893-1.00533 1.3606-1.768 2.314-2.288.9706-.53733 2.002-.806 3.094-.806s2.1146.26867 3.068.806c.9533.52 1.7246 1.28267 2.314 2.288.5893 1.00533.884 2.2273.884 3.666 0 1.4213-.2947 2.6433-.884 3.666-.5894 1.0053-1.3607 1.7767-2.314 2.314-.9534.52-1.976.78-3.068.78zm0-3.094c.78 0 1.3693-.3293 1.768-.988.3986-.676.598-1.5687.598-2.678 0-1.1267-.1994-2.0193-.598-2.678-.3987-.65867-.988-.988-1.768-.988-.7974 0-1.3954.32933-1.794.988-.3814.6587-.572 1.5513-.572 2.678 0 1.1093.1906 2.002.572 2.678.3986.6587.9966.988 1.794.988zm13.4859 3.094c-1.5947 0-2.8774-.598-3.848-1.794-.9534-1.2133-1.43-2.8687-1.43-4.966 0-1.404.2513-2.60867.754-3.614.52-1.02267 1.1873-1.80267 2.002-2.34.832-.53733 1.6986-.806 2.6-.806.7106 0 1.3086.12133 1.794.364.4853.24267.9446.572 1.378.988l-.156-1.976v-4.394001h3.822v18.226001h-3.12l-.26-1.274h-.104c-.4507.4507-.9794.832-1.586 1.144-.6067.2947-1.222.442-1.846.442zm.988-3.12c.416 0 .7886-.0867 1.118-.26.3466-.1733.676-.4767.988-.91v-5.278c-.3294-.312-.6847-.52867-1.066-.65-.364-.12133-.7194-.182-1.066-.182-.6067 0-1.144.29467-1.612.884-.468.572-.702 1.4733-.702 2.704 0 1.2653.1993 2.2013.598 2.808.416.5893.9966.884 1.742.884zm15.0863 3.12c-1.2307 0-2.34-.2687-3.328-.806s-1.768-1.3087-2.34-2.314-.858-2.2187-.858-3.64c0-1.404.286-2.60867.858-3.614.5893-1.00533 1.352-1.77667 2.288-2.314.936-.55467 1.9153-.832 2.938-.832 1.2306 0 2.2446.27733 3.042.832.8146.53733 1.4213 1.274 1.82 2.21.416.91867.624 1.9673.624 3.146 0 .3293-.0174.6587-.052.988-.0347.312-.0694.546-.104.702h-7.722c.1733.936.5633 1.6293 1.17 2.08.6066.4333 1.3346.65 2.184.65.9186 0 1.846-.286 2.782-.858l1.274 2.314c-.6587.4507-1.3954.806-2.21 1.066-.8147.26-1.6034.39-2.366.39zm-2.86-8.164h4.654c0-.7107-.1734-1.29133-.52-1.742-.3294-.468-.8754-.702-1.638-.702-.5894 0-1.118.208-1.586.624-.468.39867-.7714 1.0053-.91 1.82z" fill="#ff571a"/><path d="m99.1715 19.312c-.6587 0-1.2133-.2253-1.664-.676-.4333-.468-.65-1.04-.65-1.716 0-.6933.2167-1.2653.65-1.716.4507-.468 1.0053-.702 1.664-.702s1.2045.234 1.6375.702c.451.4507.676 1.0227.676 1.716 0 .676-.225 1.248-.676 1.716-.433.4507-.9788.676-1.6375.676z" fill="#f7f7f7"/></svg>