<svg width="102" height="24" viewBox="0 0 102 24" fill="none" xmlns="http://www.w3.org/2000/svg">
<path d="M0.00200018 19V2.048H3.824V8.574H9.674V2.048H13.522V19H9.674V11.928H3.824V19H0.00200018ZM17.2095 19V6.104H21.0315V19H17.2095ZM19.1075 4.206C18.4662 4.206 17.9462 4.024 17.5475 3.66C17.1489 3.296 16.9495 2.81067 16.9495 2.204C16.9495 1.59733 17.1489 1.112 17.5475 0.747999C17.9462 0.383999 18.4662 0.201999 19.1075 0.201999C19.7489 0.201999 20.2689 0.383999 20.6675 0.747999C21.0662 1.112 21.2655 1.59733 21.2655 2.204C21.2655 2.81067 21.0662 3.296 20.6675 3.66C20.2689 4.024 19.7489 4.206 19.1075 4.206ZM24.3951 23.784V6.104H27.5151L27.7751 7.378H27.8791C28.3817 6.92733 28.9451 6.55467 29.5691 6.26C30.2104 5.948 30.8691 5.792 31.5451 5.792C33.1051 5.792 34.3357 6.39 35.2371 7.586C36.1384 8.76467 36.5891 10.3507 36.5891 12.344C36.5891 13.8173 36.3291 15.074 35.8091 16.114C35.2891 17.154 34.6131 17.9513 33.7811 18.506C32.9664 19.0433 32.0911 19.312 31.1551 19.312C30.6004 19.312 30.0631 19.1993 29.5431 18.974C29.0231 18.7313 28.5377 18.3933 28.0871 17.96L28.2171 20.014V23.784H24.3951ZM30.2711 16.192C30.9297 16.192 31.4931 15.8887 31.9611 15.282C32.4291 14.6753 32.6631 13.7133 32.6631 12.396C32.6631 10.0733 31.9177 8.912 30.4271 8.912C29.6817 8.912 28.9451 9.302 28.2171 10.082V15.36C28.5637 15.672 28.9104 15.8887 29.2571 16.01C29.6037 16.1313 29.9417 16.192 30.2711 16.192ZM39.2994 19V6.104H42.4194L42.6794 7.742H42.7834C43.338 7.222 43.9447 6.77133 44.6034 6.39C45.2794 5.99133 46.0507 5.792 46.9174 5.792C48.3214 5.792 49.3354 6.26 49.9594 7.196C50.6007 8.11467 50.9214 9.38 50.9214 10.992V19H47.0994V11.486C47.0994 10.55 46.9694 9.90867 46.7094 9.562C46.4667 9.21533 46.068 9.042 45.5134 9.042C45.028 9.042 44.612 9.15467 44.2654 9.38C43.9187 9.588 43.5374 9.89133 43.1214 10.29V19H39.2994ZM59.7163 19.312C58.6243 19.312 57.5929 19.052 56.6223 18.532C55.6689 17.9947 54.8976 17.2233 54.3083 16.218C53.7189 15.1953 53.4243 13.9733 53.4243 12.552C53.4243 11.1133 53.7189 9.89133 54.3083 8.886C54.8976 7.88067 55.6689 7.118 56.6223 6.598C57.5929 6.06067 58.6243 5.792 59.7163 5.792C60.8083 5.792 61.8309 6.06067 62.7843 6.598C63.7376 7.118 64.5089 7.88067 65.0983 8.886C65.6876 9.89133 65.9823 11.1133 65.9823 12.552C65.9823 13.9733 65.6876 15.1953 65.0983 16.218C64.5089 17.2233 63.7376 17.9947 62.7843 18.532C61.8309 19.052 60.8083 19.312 59.7163 19.312ZM59.7163 16.218C60.4963 16.218 61.0856 15.8887 61.4843 15.23C61.8829 14.554 62.0823 13.6613 62.0823 12.552C62.0823 11.4253 61.8829 10.5327 61.4843 9.874C61.0856 9.21533 60.4963 8.886 59.7163 8.886C58.9189 8.886 58.3209 9.21533 57.9223 9.874C57.5409 10.5327 57.3503 11.4253 57.3503 12.552C57.3503 13.6613 57.5409 14.554 57.9223 15.23C58.3209 15.8887 58.9189 16.218 59.7163 16.218ZM73.2022 19.312C71.6075 19.312 70.3248 18.714 69.3542 17.518C68.4008 16.3047 67.9242 14.6493 67.9242 12.552C67.9242 11.148 68.1755 9.94333 68.6782 8.938C69.1982 7.91533 69.8655 7.13533 70.6802 6.598C71.5122 6.06067 72.3788 5.792 73.2802 5.792C73.9908 5.792 74.5888 5.91333 75.0742 6.156C75.5595 6.39867 76.0188 6.728 76.4522 7.144L76.2962 5.168V0.773999H80.1182V19H76.9982L76.7382 17.726H76.6342C76.1835 18.1767 75.6548 18.558 75.0482 18.87C74.4415 19.1647 73.8262 19.312 73.2022 19.312ZM74.1902 16.192C74.6062 16.192 74.9788 16.1053 75.3082 15.932C75.6548 15.7587 75.9842 15.4553 76.2962 15.022V9.744C75.9668 9.432 75.6115 9.21533 75.2302 9.094C74.8662 8.97267 74.5108 8.912 74.1642 8.912C73.5575 8.912 73.0202 9.20667 72.5522 9.796C72.0842 10.368 71.8502 11.2693 71.8502 12.5C71.8502 13.7653 72.0495 14.7013 72.4482 15.308C72.8642 15.8973 73.4448 16.192 74.1902 16.192ZM89.2765 19.312C88.0458 19.312 86.9365 19.0433 85.9485 18.506C84.9605 17.9687 84.1805 17.1973 83.6085 16.192C83.0365 15.1867 82.7505 13.9733 82.7505 12.552C82.7505 11.148 83.0365 9.94333 83.6085 8.938C84.1978 7.93267 84.9605 7.16133 85.8965 6.624C86.8325 6.06933 87.8118 5.792 88.8345 5.792C90.0651 5.792 91.0791 6.06933 91.8765 6.624C92.6911 7.16133 93.2978 7.898 93.6965 8.834C94.1125 9.75267 94.3205 10.8013 94.3205 11.98C94.3205 12.3093 94.3031 12.6387 94.2685 12.968C94.2338 13.28 94.1991 13.514 94.1645 13.67H86.4425C86.6158 14.606 87.0058 15.2993 87.6125 15.75C88.2191 16.1833 88.9471 16.4 89.7965 16.4C90.7151 16.4 91.6425 16.114 92.5785 15.542L93.8525 17.856C93.1938 18.3067 92.4571 18.662 91.6425 18.922C90.8278 19.182 90.0391 19.312 89.2765 19.312ZM86.4165 11.148H91.0705C91.0705 10.4373 90.8971 9.85667 90.5505 9.406C90.2211 8.938 89.6751 8.704 88.9125 8.704C88.3231 8.704 87.7945 8.912 87.3265 9.328C86.8585 9.72667 86.5551 10.3333 86.4165 11.148Z" fill="#FF4401"/>
<path d="M99.1715 19.312C98.5128 19.312 97.9582 19.0867 97.5075 18.636C97.0742 18.168 96.8575 17.596 96.8575 16.92C96.8575 16.2267 97.0742 15.6547 97.5075 15.204C97.9582 14.736 98.5128 14.502 99.1715 14.502C99.8302 14.502 100.376 14.736 100.809 15.204C101.26 15.6547 101.485 16.2267 101.485 16.92C101.485 17.596 101.26 18.168 100.809 18.636C100.376 19.0867 99.8302 19.312 99.1715 19.312Z" fill="#192351"/>
</svg>
