<svg xmlns="http://www.w3.org/2000/svg" width="20" height="20" viewBox="0 0 20 20" fill="none">
  <path d="M19.9611 17.9027C20.1304 18.3661 19.7194 18.8295 19.2605 18.7075L17.1582 18.244C16.3849 18.0732 15.5633 18.2197 14.8867 18.6343C13.3886 19.5123 11.6488 20 9.78807 20C4.35111 19.9268 -0.0951099 15.3174 0.00154686 9.83008C0.0981312 4.31832 4.59275 -0.095967 10.1022 0.00158629C15.1767 0.0990655 19.4296 4.17208 19.7679 9.29353C19.8645 10.7569 19.6471 12.1713 19.1879 13.4395C18.9221 14.1467 18.9221 14.9029 19.1638 15.6101L19.9611 17.9027ZM13.7417 7.07424H5.55924C5.02763 7.07424 4.59276 7.51315 4.59276 8.04969C4.59276 8.58623 5.02763 9.02514 5.55924 9.02514L13.7417 9.02531C14.2733 9.02531 14.7081 8.5864 14.7081 8.04986C14.7083 7.51314 14.2733 7.07424 13.7417 7.07424ZM13.7417 11.4641H8.55924C8.02763 11.4641 7.59276 11.903 7.59276 12.4396C7.59276 12.9761 8.02763 13.415 8.55924 13.415H13.7417C14.2733 13.415 14.7081 12.9761 14.7081 12.4396C14.7083 11.903 14.2733 11.4641 13.7417 11.4641Z" fill="#C5D0E6"/>
</svg>