<svg xmlns="http://www.w3.org/2000/svg" width="20" height="20" viewBox="0 0 20 20" fill="none">
  <path d="M1.81055 18H5.07374V12.3174L1.81055 15.4207V18Z" fill="#3F4354"/>
  <path d="M6.54688 10.9067V17.9999H9.81007V13.1435L7.01007 10.4634L6.54688 10.9067Z" fill="#3F4354"/>
  <path d="M11.3066 18H14.5698V10.665L11.3066 13.7885V18Z" fill="#3F4354"/>
  <path d="M17.6411 7.7229L16.041 9.25445V18H19.3042V9.3149L18.0621 8.12603L17.6411 7.7229Z" fill="#3F4354"/>
  <path d="M19.158 7.09821L20 2L14.6737 2.80597L16.1895 4.25684L10.9053 9.33491L7.01053 5.60696L0 12.3173L1.45267 13.7077L7.01056 8.38785L10.9053 12.0956L17.6421 5.6473L19.158 7.09821Z" fill="#3F4354"/>
</svg>