<svg width="20" height="20" viewBox="0 0 20 20" fill="none" xmlns="http://www.w3.org/2000/svg">
<g id="Web">
<path id="Vector" d="M10.0007 0C4.4862 0 0 4.48599 0 10C0 15.5137 4.48627 20 10.0007 20C15.5144 20 20 15.5137 20 10C20 4.48606 15.5146 0 10.0007 0ZM18.3258 9.18403H15.3871C15.1946 6.43776 14.0367 3.86778 12.1474 1.92199C15.4679 2.8059 17.9854 5.67727 18.3258 9.18403ZM10.0007 17.8246C7.83117 16.1189 6.47669 13.5754 6.25091 10.8162H13.7495C13.5237 13.5748 12.1693 16.1189 10.0006 17.8246H10.0007ZM6.25091 9.18403C6.47642 6.42537 7.8311 3.88046 10.0007 2.17622C12.1695 3.88046 13.5241 6.42537 13.7496 9.18403H6.25091ZM7.85314 1.92199C5.96353 3.86799 4.80604 6.43819 4.61349 9.18403H1.67389C2.01491 5.67713 4.53239 2.80541 7.85314 1.92199ZM1.67389 10.816H4.61349C4.806 13.5622 5.96353 16.1317 7.85314 18.0773C4.53239 17.194 2.01492 14.3231 1.67389 10.816ZM12.1477 18.0773C14.037 16.1316 15.1948 13.5622 15.3874 10.816H18.3261C17.9856 14.3231 15.4682 17.194 12.1477 18.0773Z" fill="#F7F7F7"/>
</g>
</svg>
