<svg width="20" height="20" viewBox="0 0 20 20" fill="none" xmlns="http://www.w3.org/2000/svg">
<path d="M10.0012 0C4.48627 0 0 4.48587 0 9.99879C0 15.5161 4.48586 20 10.0012 20C15.5165 20 20.0024 15.5161 20.0024 9.99879C20.0024 4.48587 15.5165 0 10.0012 0ZM10.0012 18.5069C5.31025 18.5069 1.49314 14.692 1.49314 9.99879C1.49314 5.30784 5.31033 1.49314 10.0012 1.49314C14.6942 1.49314 18.5069 5.31033 18.5069 9.99879C18.5069 14.6918 14.6942 18.5069 10.0012 18.5069Z" fill="#FF8F67"/>
<path d="M10.5016 9.27594C9.14577 8.71516 8.56926 8.30988 8.56926 7.50134C8.56926 6.87975 9.02199 6.16141 10.2199 6.16141C11.2176 6.16141 11.8549 6.5037 12.1814 6.69063L12.571 5.66376C12.1207 5.39797 11.481 5.14806 10.5487 5.11883L10.5488 3.60767H9.58042V5.18184C8.14812 5.41385 7.23168 6.39566 7.23168 7.68829C7.23168 9.04395 8.21347 9.76012 9.80115 10.3817C10.952 10.8501 11.5599 11.3772 11.5599 12.2352C11.5599 13.1224 10.8121 13.762 9.70641 13.762C8.83489 13.762 8.02418 13.4648 7.46339 13.091L7.08984 14.1335C7.63478 14.5253 8.56944 14.8046 9.47236 14.8227V16.3923H10.4541L10.4543 14.773C12.0555 14.5096 12.9135 13.3542 12.9135 12.1269C12.9133 10.7397 12.105 9.93131 10.5015 9.27594H10.5016Z" fill="#FF8F67"/>
</svg>
