<svg fill="none" height="20" viewBox="0 0 20 20" width="20" xmlns="http://www.w3.org/2000/svg"><g fill="#c5d0e6"><ellipse cx="10" cy="15" rx="6" ry="3"/><circle cx="10" cy="6" r="4"/><g clip-rule="evenodd" fill-rule="evenodd"><path d="m5.25 3.46824c-1.04615.60516-1.75 1.73627-1.75 3.03176s.70385 2.4266 1.75 3.03176c-.5148.2978-1.1125.46824-1.75.46824-1.933 0-3.5-1.567-3.5-3.5s1.567-3.5 3.5-3.5c.6375 0 1.2352.17044 1.75.46824z"/><path d="m14.75 3.46824c1.0462.60516 1.75 1.73627 1.75 3.03176s-.7038 2.4266-1.75 3.03176c.5148.2978 1.1125.46824 1.75.46824 1.933 0 3.5-1.567 3.5-3.5s-1.567-3.5-3.5-3.5c-.6375 0-1.2352.17044-1.75.46824z"/><path d="m15.4998 12h.0002c1.3807 0 2.5 1.1193 2.5 2.5 0 .5628-.186 1.0822-.4998 1.5 1.3806-.0001 2.4998-1.1193 2.4998-2.5s-1.1193-2.5-2.5-2.5c-.8179 0-1.5441.3928-2.0002 1z"/><path d="m4.50018 12c-.00006 0-.00012 0-.00018 0-1.38071 0-2.5 1.1193-2.5 2.5 0 .5628.18598 1.0822.49982 1.5-1.38063-.0001-2.49982-1.1193-2.49982-2.5s1.11929-2.5 2.5-2.5c.81791 0 1.54408.3928 2.00018 1z"/></g></g><circle cx="16.5" cy="3.5" fill="#ff6934" r="3" stroke="#fff"/></svg>