<svg width="20" height="20" viewBox="0 0 20 20" fill="none" xmlns="http://www.w3.org/2000/svg">
<g clip-path="url(#clip0_3121_47847)">
<path d="M18.706 8.56786V8.32507C18.706 7.32989 17.8589 6.48047 16.7531 6.23771C16.3767 2.74254 13.4825 -0.00012207 10.0001 -0.00012207C6.51772 -0.00012207 3.62359 2.74245 3.24711 6.23771C2.11774 6.48049 1.29417 7.32989 1.29417 8.32507V8.56786C0.564792 8.71346 0 9.44164 0 10.2912C0 11.165 0.56475 11.8688 1.29417 12.0146V12.2574C1.29417 13.4468 2.47064 14.4176 3.92943 14.4176H4.47056V6.89336C4.51767 3.8108 6.98831 1.31086 10 1.31086C13.0352 1.31086 15.5294 3.85943 15.5294 7.01471V14.4176H16.0706C17.5059 14.4176 18.7058 13.4468 18.7058 12.2574V12.0146C19.4352 11.869 20 11.1408 20 10.2912C20 9.41728 19.4352 8.71349 18.7058 8.56786H18.706Z" fill="#C5D0E6"/>
<path d="M14.0444 11C13.621 11 13.2914 11.3398 13.2914 11.7768C13.2914 13.6457 11.809 15.1747 9.99737 15.1747C8.18556 15.1747 6.70332 13.6456 6.70332 11.7768C6.70332 11.34 6.37392 11 5.95029 11C5.52685 11 5.19727 11.3398 5.19727 11.7768C5.19727 14.2525 6.96198 16.3399 9.33842 16.6797V19.3446C9.33842 19.7086 9.62072 20 9.97376 20C10.3266 20 10.6091 19.6844 10.6091 19.3446V16.6553C12.9855 16.3155 14.7739 14.2523 14.7739 11.7524C14.7973 11.3398 14.4679 11 14.0444 11Z" fill="#C5D0E6"/>
<path d="M9.99915 13.6846C8.75209 13.6846 7.74023 12.641 7.74023 11.3544V6.33018C7.74023 5.04377 8.75192 4 9.99915 4C11.2462 4 12.2581 5.0436 12.2581 6.33018V11.3544C12.2581 12.6408 11.2462 13.6844 9.99915 13.6844V13.6846Z" fill="#C5D0E6"/>
</g>
<defs>
<clipPath id="clip0_3121_47847">
<rect width="20" height="20" fill="white"/>
</clipPath>
</defs>
</svg>
