<svg width="20" height="20" viewBox="0 0 20 20" fill="none" xmlns="http://www.w3.org/2000/svg">
<path fill-rule="evenodd" clip-rule="evenodd" d="M10.0007 13.2218C8.22089 13.2218 6.77902 11.7799 6.77902 10.0016C6.77902 8.22169 8.22089 6.77996 10.0007 6.77996C11.779 6.77996 13.2208 8.22169 13.2208 10.0016C13.2208 11.7799 11.779 13.2218 10.0007 13.2218ZM10.002 0H10.0007C9.01781 0 7.44917 0.144998 5.73972 0.948985C4.99623 1.29817 3.56417 2.08538 2.30119 3.61449C0.0484045 6.34179 -0.000976562 9.41576 -0.000976562 10.0014C0.00191759 14.1946 2.66164 16.8178 3.09822 17.2345C3.21645 17.3472 6.04375 19.9689 10.0005 20H10.0722C11.6407 20 12.901 19.5973 13.1235 19.524C14.2922 19.1396 15.1694 18.5989 15.741 18.1849C16.1226 17.923 16.2197 17.3922 15.9565 17.0106C15.7945 16.774 15.5284 16.6474 15.2581 16.6474C15.0933 16.6474 14.9271 16.6952 14.7821 16.7952C14.2541 17.1768 13.3867 17.7104 12.2053 18.0316C12.0406 18.0766 11.1605 18.3103 10.0793 18.3103H10.0004C6.58024 18.2751 4.19913 15.9533 4.19913 15.9533C1.73781 13.5568 1.68991 10.5184 1.68991 10.0016C1.68991 9.63404 1.73636 6.69821 3.93014 4.33147C4.8017 3.39085 5.72972 2.84588 6.30277 2.56156C7.83044 1.79969 9.23426 1.69274 10.0003 1.6913H10.0129C11.7885 1.6913 13.105 2.25738 13.6569 2.52626C14.0034 2.69527 15.4917 3.45427 16.7645 5.17065C17.4727 6.12382 18.3106 8.01068 18.3106 10.0002C18.3106 10.9337 17.5432 11.7011 16.6097 11.7011C15.6775 11.7011 14.9101 10.9337 14.9101 10.0002C14.9101 8.96818 14.7848 8.39917 14.1569 7.37698C13.9724 7.0757 13.7864 6.86587 13.6753 6.74199C12.9571 5.938 12.1673 5.57896 11.8955 5.46623C11.6096 5.34656 10.9198 5.09174 10.0003 5.0903H9.99597C9.14279 5.0903 8.50491 5.30996 8.25426 5.40431C8.02056 5.49447 7.49106 5.71688 6.92641 6.1717C5.96483 6.95039 5.55923 7.87823 5.43809 8.18096C5.30728 8.50771 5.09036 9.15543 5.08891 10.0002C5.08891 10.9111 5.33954 11.6011 5.47614 11.9208C5.63243 12.294 6.03371 13.1078 6.89123 13.8062C8.2007 14.8706 9.64402 14.9115 9.99594 14.9115H10.0003C10.4409 14.91 11.4322 14.851 12.4769 14.2399C13.5048 13.6401 14.0414 12.8262 14.261 12.4432C14.4581 12.6319 14.7889 12.905 15.2649 13.112C15.4663 13.1993 15.9619 13.3894 16.5998 13.3894H16.6096C17.998 13.3852 18.9174 12.4784 19.0231 12.3714C19.9635 11.4125 19.9988 10.2423 20.0001 10.0003C20.0256 6.82927 18.2204 4.23418 17.7656 3.68369C17.2446 3.05148 15.7113 1.34911 13.119 0.497216C12.5206 0.300125 11.4139 0.00014446 10.0016 0.00014446" fill="#3F4354"/>
</svg>
